<svg width="121" height="53" viewBox="0 0 121 53" fill="none" xmlns="http://www.w3.org/2000/svg">
<path d="M19.7292 8.56176V21.5904H2.23364V29.8543H19.7292V43.6274H0.000154495V52.1147H30.1522V0.0745239H0.000154495V8.56176H19.7292Z" fill="black"/>
<path fill-rule="evenodd" clip-rule="evenodd" d="M101.085 8.48723V21.5159H118.581V29.7798H101.085V43.5529H120.814V52.0401H90.6624V0H120.814V8.48723H101.085ZM70.7437 52.0401L59.5018 34.5445L59.4494 34.6345L53.9166 25.8364L53.9181 25.8339L53.7889 25.6334L45.4456 12.3663H45.2381L37.3159 0.0744511H49.3023L60.5441 17.4956L60.5446 17.4948L74.857 39.8868H74.9197L82.73 52.0401H70.7437ZM51.0406 30.4379L37.5393 52.0401H49.3023L56.7178 39.32L51.0406 30.4379ZM63.3373 12.6897L68.9714 21.6487L82.4323 0.0744511H70.6693L63.3373 12.6897Z" fill="black"/>
</svg>
