<svg width="74" height="22" viewBox="0 0 74 22" fill="none" xmlns="http://www.w3.org/2000/svg">
<path d="M25.9145 14.7375C25.9145 15.0437 25.878 15.3792 25.8051 15.7438H17.3384C17.3822 16.6627 17.6155 17.3263 18.0385 17.7347C18.4615 18.1285 19.0011 18.3254 19.6574 18.3254C20.2117 18.3254 20.6711 18.1868 21.0357 17.9097C21.4004 17.6326 21.641 17.2753 21.7577 16.8377H25.7176C25.5571 17.6982 25.2071 18.4713 24.6674 19.1568C24.1278 19.8277 23.4423 20.36 22.6109 20.7538C21.7796 21.133 20.8534 21.3227 19.8325 21.3227C18.6365 21.3227 17.5718 21.0747 16.6383 20.5788C15.7194 20.0683 14.9975 19.3391 14.4724 18.391C13.9473 17.443 13.6848 16.3345 13.6848 15.0656C13.6848 13.7821 13.9401 12.6737 14.4505 11.7402C14.9756 10.7922 15.7049 10.0702 16.6383 9.57431C17.5718 9.06383 18.6365 8.80859 19.8325 8.80859C21.043 8.80859 22.1077 9.05654 23.0266 9.55244C23.9455 10.0483 24.6529 10.7484 25.1487 11.6527C25.6592 12.5424 25.9145 13.5706 25.9145 14.7375ZM22.1296 14.1686C22.1442 13.3665 21.9254 12.7685 21.4733 12.3747C21.0357 11.9663 20.4888 11.7621 19.8325 11.7621C19.147 11.7621 18.5781 11.9663 18.126 12.3747C17.6739 12.783 17.4186 13.381 17.3603 14.1686H22.1296Z" fill="black"/>
<path d="M39.2199 8.96174V21.1695H35.4569V18.9599C35.1069 19.6745 34.5818 20.2434 33.8817 20.6663C33.1962 21.0893 32.394 21.3008 31.4752 21.3008C30.075 21.3008 28.9592 20.8341 28.1279 19.9006C27.3111 18.9672 26.9027 17.6837 26.9027 16.0501V8.96174H30.6219V15.5907C30.6219 16.422 30.8334 17.0711 31.2564 17.5378C31.6939 17.9899 32.2773 18.216 33.0066 18.216C33.765 18.216 34.363 17.9754 34.8006 17.4941C35.2381 17.0127 35.4569 16.3272 35.4569 15.4375V8.96174H39.2199Z" fill="black"/>
<path d="M45.4525 8.80859C46.9985 8.80859 48.2309 9.1951 49.1498 9.96811C50.0832 10.7411 50.6666 11.7621 50.9 13.031H47.3996C47.2975 12.5351 47.0641 12.1486 46.6995 11.8715C46.3494 11.5798 45.9046 11.4339 45.3649 11.4339C44.942 11.4339 44.6211 11.5287 44.4023 11.7183C44.1835 11.8934 44.0742 12.1486 44.0742 12.4841C44.0742 12.8633 44.2711 13.1477 44.6649 13.3373C45.0732 13.5269 45.7077 13.7165 46.5682 13.9061C47.5017 14.1249 48.2674 14.351 48.8654 14.5843C49.4634 14.8031 49.9811 15.1677 50.4187 15.6782C50.8563 16.1887 51.075 16.8742 51.075 17.7347C51.075 18.4348 50.8854 19.0547 50.5062 19.5943C50.127 20.134 49.58 20.5569 48.8654 20.8632C48.1507 21.1695 47.3048 21.3227 46.3276 21.3227C44.6794 21.3227 43.3595 20.958 42.3677 20.2288C41.3759 19.4995 40.7706 18.4567 40.5518 17.1003H44.1617C44.22 17.6253 44.4388 18.0264 44.818 18.3035C45.2118 18.5806 45.715 18.7192 46.3276 18.7192C46.7505 18.7192 47.0714 18.6244 47.2902 18.4348C47.509 18.2306 47.6183 17.9681 47.6183 17.6472C47.6183 17.2242 47.4142 16.9252 47.0058 16.7502C46.612 16.5606 45.9629 16.3637 45.0587 16.1595C44.1544 15.9699 43.4105 15.7657 42.8271 15.5469C42.2437 15.3282 41.7405 14.9781 41.3176 14.4968C40.8946 14.0009 40.6831 13.33 40.6831 12.4841C40.6831 11.3902 41.0988 10.5078 41.9301 9.83685C42.7615 9.15135 43.9356 8.80859 45.4525 8.80859Z" fill="black"/>
<path d="M63.9548 14.7375C63.9548 15.0437 63.9184 15.3792 63.8455 15.7438H55.3788C55.4225 16.6627 55.6559 17.3263 56.0789 17.7347C56.5018 18.1285 57.0415 18.3254 57.6978 18.3254C58.252 18.3254 58.7115 18.1868 59.0761 17.9097C59.4407 17.6326 59.6814 17.2753 59.7981 16.8377H63.7579C63.5975 17.6982 63.2475 18.4713 62.7078 19.1568C62.1682 19.8277 61.4827 20.36 60.6513 20.7538C59.82 21.133 58.8938 21.3227 57.8728 21.3227C56.6769 21.3227 55.6121 21.0747 54.6787 20.5788C53.7598 20.0683 53.0379 19.3391 52.5128 18.391C51.9877 17.443 51.7252 16.3345 51.7252 15.0656C51.7252 13.7821 51.9804 12.6737 52.4909 11.7402C53.016 10.7922 53.7452 10.0702 54.6787 9.57431C55.6121 9.06383 56.6769 8.80859 57.8728 8.80859C59.0834 8.80859 60.1481 9.05654 61.067 9.55244C61.9858 10.0483 62.6932 10.7484 63.1891 11.6527C63.6996 12.5424 63.9548 13.5706 63.9548 14.7375ZM60.17 14.1686C60.1846 13.3665 59.9658 12.7685 59.5137 12.3747C59.0761 11.9663 58.5292 11.7621 57.8728 11.7621C57.1873 11.7621 56.6185 11.9663 56.1664 12.3747C55.7142 12.783 55.459 13.381 55.4007 14.1686H60.17Z" fill="black"/>
<path d="M68.8592 11.2589C69.3259 10.5151 69.9239 9.92436 70.6532 9.4868C71.397 9.04925 72.1992 8.83047 73.0597 8.83047V12.8341H71.9877C70.9959 12.8341 70.2229 13.0456 69.6687 13.4686C69.129 13.8915 68.8592 14.6062 68.8592 15.6126V21.1695H65.1181V8.96174H68.8592V11.2589Z" fill="black"/>
<rect x="8.05884" width="12.5734" height="4.04289" fill="#175CFF"/>
<rect x="12.1013" y="5.00146" width="16.1681" height="4.04289" transform="rotate(90 12.1013 5.00146)" fill="black"/>
<rect x="0.78418" width="6.2867" height="4.04289" fill="black"/>
</svg>
